<?xml version="1.0" encoding="UTF-8" standalone="no"?><!DOCTYPE svg PUBLIC "-//W3C//DTD SVG 1.1//EN" "http://www.w3.org/Graphics/SVG/1.1/DTD/svg11.dtd"><svg width="100%" height="100%" viewBox="0 0 100 100" version="1.1" xmlns="http://www.w3.org/2000/svg" xmlns:xlink="http://www.w3.org/1999/xlink" xml:space="preserve" xmlns:serif="http://www.serif.com/" style="fill-rule:evenodd;clip-rule:evenodd;stroke-linecap:round;stroke-linejoin:round;"><path d="M100,20.962c0,-11.569 -9.393,-20.962 -20.962,-20.962l-58.076,0c-11.569,0 -20.962,9.393 -20.962,20.962l0,58.076c0,11.569 9.393,20.962 20.962,20.962l58.076,0c11.569,0 20.962,-9.393 20.962,-20.962l0,-58.076Z" style="fill:#eff8ff;"/><clipPath id="_clip1"><path d="M100,20.962c0,-11.569 -9.393,-20.962 -20.962,-20.962l-58.076,0c-11.569,0 -20.962,9.393 -20.962,20.962l0,58.076c0,11.569 9.393,20.962 20.962,20.962l58.076,0c11.569,0 20.962,-9.393 20.962,-20.962l0,-58.076Z"/></clipPath><g clip-path="url(#_clip1)"><path d="M56,7l44,44l0,49l-49,0l-40,-40l45,-53Z" style="fill:#3382c3;fill-opacity:0.1;"/></g><g><path d="M54,10l-40,48l36,0l-4,32l40,-48l-36,0l4,-32Z" style="fill:#3382c3;fill-rule:nonzero;stroke:#3490dc;stroke-width:8px;"/></g></svg>